<?xml version="1.0" encoding="UTF-8" standalone="no"?>
<!DOCTYPE svg PUBLIC "-//W3C//DTD SVG 1.1//EN" "http://www.w3.org/Graphics/SVG/1.1/DTD/svg11.dtd">
<svg width="100%" height="100%" viewBox="0 0 250 250" version="1.1" xmlns="http://www.w3.org/2000/svg" xmlns:xlink="http://www.w3.org/1999/xlink" xml:space="preserve" xmlns:serif="http://www.serif.com/" style="fill-rule:evenodd;clip-rule:evenodd;stroke-linejoin:round;stroke-miterlimit:2;">
    <g transform="matrix(1,0,0,1,-75,-75)">
        <path d="M320,299C320,307.25 313.25,314 305,314L95,314C86.75,314 80,307.25 80,299L80,209C80,200.75 84.781,189.218 90.613,183.387L189.387,84.593C195.219,78.762 204.763,78.762 210.594,84.593L309.387,183.387C315.219,189.218 320,200.75 320,209L320,299Z" style="fill:rgb(24,188,242);fill-rule:nonzero;"/>
        <path d="M239.994,158.656L159.987,158.656C156.669,158.656 153.987,161.337 153.987,164.656L153.987,314L165.987,314L165.987,170.656L233.994,170.656L233.994,182.656L183.987,182.656C180.669,182.656 177.987,185.337 177.987,188.656L177.987,212.656C177.987,215.975 180.669,218.656 183.987,218.656L233.994,218.656L233.994,230.656L183.987,230.656C180.669,230.656 177.987,233.337 177.987,236.656L177.987,260.656C177.987,263.975 180.669,266.656 183.987,266.656L233.994,266.656L233.994,278.656L183.987,278.656C180.669,278.656 177.987,281.337 177.987,284.656C177.987,287.975 180.669,290.656 183.987,290.656L239.994,290.656C243.312,290.656 245.994,287.975 245.994,284.656L245.994,260.656C245.994,257.337 243.312,254.656 239.994,254.656L189.987,254.656L189.987,242.656L239.994,242.656C243.312,242.656 245.994,239.975 245.994,236.656L245.994,212.656C245.994,209.337 243.312,206.656 239.994,206.656L189.987,206.656L189.987,194.656L239.994,194.656C243.312,194.656 245.994,191.975 245.994,188.656L245.994,164.656C245.994,161.337 243.312,158.656 239.994,158.656Z" style="fill:rgb(242,244,249);fill-rule:nonzero;"/>
    </g>
</svg>
